<?xml version="1.0"?>
<svg width="32" height="32" xmlns="http://www.w3.org/2000/svg" xmlns:svg="http://www.w3.org/2000/svg">
 <g class="layer">
  <title>Layer 1</title>
  <path d="m16,2c-7.7,0 -14,6.3 -14,14s6.3,14 14,14s14,-6.3 14,-14s-6.3,-14 -14,-14zm4.7,15.7l-4,4c-0.1,0.1 -0.2,0.2 -0.3,0.2c-0.1,0.1 -0.3,0.1 -0.4,0.1s-0.3,0 -0.4,-0.1c-0.1,-0.1 -0.2,-0.1 -0.3,-0.2l-4,-4c-0.4,-0.4 -0.4,-1 0,-1.4s1,-0.4 1.4,0l2.3,2.3l0,-8.6c0,-0.6 0.4,-1 1,-1s1,0.4 1,1l0,8.6l2.3,-2.3c0.4,-0.4 1,-0.4 1.4,0s0.4,1 0,1.4z" fill="#8e8e8e" id="svg_1"/>
 </g>
</svg>